<svg xmlns="http://www.w3.org/2000/svg" xmlns:xlink="http://www.w3.org/1999/xlink" width="1000" zoomAndPan="magnify" viewBox="0 0 750 187.499995" height="250" preserveAspectRatio="xMidYMid meet" version="1.0"><defs><g/><clipPath id="a847b5a272"><path d="M 0.996094 0 L 749 0 L 749 187 L 0.996094 187 Z M 0.996094 0 " clip-rule="nonzero"/></clipPath><clipPath id="05613e104a"><path d="M 432.027344 64.53125 L 445.65625 64.53125 L 445.65625 78.160156 L 432.027344 78.160156 Z M 432.027344 64.53125 " clip-rule="nonzero"/></clipPath><clipPath id="66f21867cb"><path d="M 438.839844 64.53125 C 435.078125 64.53125 432.027344 67.582031 432.027344 71.347656 C 432.027344 75.109375 435.078125 78.160156 438.839844 78.160156 C 442.605469 78.160156 445.65625 75.109375 445.65625 71.347656 C 445.65625 67.582031 442.605469 64.53125 438.839844 64.53125 Z M 438.839844 64.53125 " clip-rule="nonzero"/></clipPath><clipPath id="de7012b726"><path d="M 448.648438 86.5 L 462.648438 86.5 L 462.648438 100.5 L 448.648438 100.5 Z M 448.648438 86.5 " clip-rule="nonzero"/></clipPath><clipPath id="e89fd6799e"><path d="M 455.648438 86.5 C 451.78125 86.5 448.648438 89.632812 448.648438 93.5 C 448.648438 97.367188 451.78125 100.5 455.648438 100.5 C 459.515625 100.5 462.648438 97.367188 462.648438 93.5 C 462.648438 89.632812 459.515625 86.5 455.648438 86.5 Z M 455.648438 86.5 " clip-rule="nonzero"/></clipPath></defs><g clip-path="url(#a847b5a272)"><path fill="#ffffff" d="M 0.996094 0 L 749.003906 0 L 749.003906 187 L 0.996094 187 Z M 0.996094 0 " fill-opacity="1" fill-rule="nonzero"/><path fill="#ffffff" d="M 0.996094 0 L 749.003906 0 L 749.003906 187 L 0.996094 187 Z M 0.996094 0 " fill-opacity="1" fill-rule="nonzero"/></g><path stroke-linecap="round" transform="matrix(0.233173, 0.710734, -0.710734, 0.233173, 384.176841, 36.305159)" fill="none" stroke-linejoin="miter" d="M 7.497332 7.501075 L 51.037291 7.50107 " stroke="#ff9b9b" stroke-width="15" stroke-opacity="1" stroke-miterlimit="4"/><path stroke-linecap="round" transform="matrix(0.464741, 0.586113, -0.586113, 0.464741, 376.007161, 53.633026)" fill="none" stroke-linejoin="miter" d="M 7.50191 7.500173 L 37.440284 7.499343 " stroke="#ff9b9b" stroke-width="15" stroke-opacity="1" stroke-miterlimit="4"/><g fill="#3186a0" fill-opacity="1"><g transform="translate(20.912991, 138.754977)"><g><path d="M 14.8125 0 C 12.664062 0 10.941406 -0.742188 9.640625 -2.234375 C 8.335938 -3.722656 7.6875 -5.445312 7.6875 -7.40625 C 7.6875 -9.082031 8.148438 -10.523438 9.078125 -11.734375 L 77.390625 -96.25 L 16.203125 -96.25 C 13.972656 -96.25 12.25 -96.804688 11.03125 -97.921875 C 9.820312 -99.046875 9.265625 -100.539062 9.359375 -102.40625 C 9.265625 -104.363281 9.890625 -105.96875 11.234375 -107.21875 C 12.585938 -108.476562 14.335938 -109.109375 16.484375 -109.109375 L 88.578125 -109.109375 C 90.804688 -109.109375 92.59375 -108.382812 93.9375 -106.9375 C 95.289062 -105.5 95.96875 -103.800781 95.96875 -101.84375 C 95.96875 -100.351562 95.457031 -98.957031 94.4375 -97.65625 L 25.84375 -12.859375 L 88.578125 -12.859375 C 90.617188 -12.859375 92.316406 -12.226562 93.671875 -10.96875 C 95.023438 -9.707031 95.703125 -8.238281 95.703125 -6.5625 C 95.703125 -4.519531 95.046875 -2.914062 93.734375 -1.75 C 92.429688 -0.582031 90.710938 0 88.578125 0 Z M 14.8125 0 "/></g></g></g><g fill="#3186a0" fill-opacity="1"><g transform="translate(124.571654, 138.754977)"><g><path d="M 81.171875 -39.390625 C 81.171875 -37.617188 80.5625 -36.148438 79.34375 -34.984375 C 78.132812 -33.828125 76.597656 -33.25 74.734375 -33.25 L 21.65625 -33.25 C 22.675781 -26.726562 25.628906 -21.460938 30.515625 -17.453125 C 35.410156 -13.453125 41.398438 -11.453125 48.484375 -11.453125 C 51.273438 -11.453125 54.179688 -11.960938 57.203125 -12.984375 C 60.234375 -14.015625 62.726562 -15.273438 64.6875 -16.765625 C 65.988281 -17.785156 67.523438 -18.296875 69.296875 -18.296875 C 71.066406 -18.296875 72.460938 -17.832031 73.484375 -16.90625 C 75.160156 -15.507812 76 -13.925781 76 -12.15625 C 76 -10.476562 75.253906 -9.082031 73.765625 -7.96875 C 70.597656 -5.445312 66.660156 -3.394531 61.953125 -1.8125 C 57.253906 -0.226562 52.765625 0.5625 48.484375 0.5625 C 40.835938 0.5625 33.988281 -1.085938 27.9375 -4.390625 C 21.882812 -7.703125 17.15625 -12.289062 13.75 -18.15625 C 10.351562 -24.03125 8.65625 -30.691406 8.65625 -38.140625 C 8.65625 -45.585938 10.257812 -52.269531 13.46875 -58.1875 C 16.6875 -64.101562 21.160156 -68.710938 26.890625 -72.015625 C 32.617188 -75.316406 39.113281 -76.96875 46.375 -76.96875 C 53.550781 -76.96875 59.742188 -75.382812 64.953125 -72.21875 C 70.171875 -69.0625 74.175781 -64.640625 76.96875 -58.953125 C 79.769531 -53.273438 81.171875 -46.753906 81.171875 -39.390625 Z M 46.375 -64.96875 C 39.582031 -64.96875 34.066406 -63.101562 29.828125 -59.375 C 25.585938 -55.644531 22.910156 -50.660156 21.796875 -44.421875 L 68.3125 -44.421875 C 67.476562 -50.660156 65.148438 -55.644531 61.328125 -59.375 C 57.515625 -63.101562 52.53125 -64.96875 46.375 -64.96875 Z M 46.375 -64.96875 "/></g></g></g><g fill="#3186a0" fill-opacity="1"><g transform="translate(211.326409, 138.754977)"><g><path d="M 50.015625 -77.25 C 54.953125 -77.25 58.816406 -76.503906 61.609375 -75.015625 C 64.398438 -73.523438 65.796875 -71.664062 65.796875 -69.4375 C 65.796875 -68.78125 65.75 -68.3125 65.65625 -68.03125 C 64.820312 -65.050781 62.960938 -63.5625 60.078125 -63.5625 C 59.609375 -63.5625 58.910156 -63.65625 57.984375 -63.84375 C 54.253906 -64.5 51.222656 -64.828125 48.890625 -64.828125 C 42.191406 -64.828125 36.789062 -63.289062 32.6875 -60.21875 C 28.59375 -57.144531 26.546875 -53 26.546875 -47.78125 L 26.546875 -6.984375 C 26.546875 -4.742188 25.960938 -3.019531 24.796875 -1.8125 C 23.628906 -0.601562 21.882812 0 19.5625 0 C 17.320312 0 15.597656 -0.582031 14.390625 -1.75 C 13.179688 -2.914062 12.578125 -4.660156 12.578125 -6.984375 L 12.578125 -69.4375 C 12.578125 -71.664062 13.179688 -73.382812 14.390625 -74.59375 C 15.597656 -75.8125 17.320312 -76.421875 19.5625 -76.421875 C 24.21875 -76.421875 26.546875 -74.09375 26.546875 -69.4375 L 26.546875 -66.78125 C 29.335938 -70.039062 32.78125 -72.597656 36.875 -74.453125 C 40.976562 -76.316406 45.359375 -77.25 50.015625 -77.25 Z M 50.015625 -77.25 "/></g></g></g><g fill="#3186a0" fill-opacity="1"><g transform="translate(279.221435, 138.754977)"><g><path d="M 47.21875 0.5625 C 39.769531 0.5625 33.109375 -1.085938 27.234375 -4.390625 C 21.367188 -7.703125 16.804688 -12.289062 13.546875 -18.15625 C 10.285156 -24.03125 8.65625 -30.691406 8.65625 -38.140625 C 8.65625 -45.679688 10.285156 -52.382812 13.546875 -58.25 C 16.804688 -64.125 21.367188 -68.710938 27.234375 -72.015625 C 33.109375 -75.316406 39.769531 -76.96875 47.21875 -76.96875 C 54.570312 -76.96875 61.160156 -75.316406 66.984375 -72.015625 C 72.804688 -68.710938 77.367188 -64.125 80.671875 -58.25 C 83.984375 -52.382812 85.640625 -45.679688 85.640625 -38.140625 C 85.640625 -30.691406 84.007812 -24.03125 80.75 -18.15625 C 77.488281 -12.289062 72.945312 -7.703125 67.125 -4.390625 C 61.300781 -1.085938 54.664062 0.5625 47.21875 0.5625 Z M 47.21875 -12.015625 C 51.96875 -12.015625 56.226562 -13.128906 60 -15.359375 C 63.769531 -17.597656 66.703125 -20.695312 68.796875 -24.65625 C 70.898438 -28.613281 71.953125 -33.109375 71.953125 -38.140625 C 71.953125 -43.171875 70.898438 -47.6875 68.796875 -51.6875 C 66.703125 -55.695312 63.769531 -58.816406 60 -61.046875 C 56.226562 -63.285156 51.96875 -64.40625 47.21875 -64.40625 C 42.46875 -64.40625 38.207031 -63.285156 34.4375 -61.046875 C 30.664062 -58.816406 27.707031 -55.695312 25.5625 -51.6875 C 23.425781 -47.6875 22.359375 -43.171875 22.359375 -38.140625 C 22.359375 -33.109375 23.425781 -28.613281 25.5625 -24.65625 C 27.707031 -20.695312 30.664062 -17.597656 34.4375 -15.359375 C 38.207031 -13.128906 42.46875 -12.015625 47.21875 -12.015625 Z M 47.21875 -12.015625 "/></g></g></g><g fill="#ff3131" fill-opacity="1"><g transform="translate(373.527349, 138.754977)"><g><path d="M 53.78125 -76.96875 C 60.488281 -76.96875 66.566406 -75.289062 72.015625 -71.9375 C 77.460938 -68.59375 81.742188 -63.960938 84.859375 -58.046875 C 87.984375 -52.128906 89.546875 -45.539062 89.546875 -38.28125 C 89.546875 -31.007812 87.867188 -24.414062 84.515625 -18.5 C 81.160156 -12.59375 76.523438 -7.9375 70.609375 -4.53125 C 64.703125 -1.132812 58.160156 0.5625 50.984375 0.5625 C 43.816406 0.5625 37.320312 -1.132812 31.5 -4.53125 C 25.675781 -7.9375 21.066406 -12.59375 17.671875 -18.5 C 14.273438 -24.414062 12.578125 -31.007812 12.578125 -38.28125 L 12.578125 -101.984375 C 12.578125 -104.128906 13.25 -105.851562 14.59375 -107.15625 C 15.945312 -108.457031 17.648438 -109.109375 19.703125 -109.109375 C 21.835938 -109.109375 23.554688 -108.457031 24.859375 -107.15625 C 26.171875 -105.851562 26.828125 -104.128906 26.828125 -101.984375 L 26.828125 -64.265625 C 30.085938 -68.265625 34.046875 -71.378906 38.703125 -73.609375 C 43.359375 -75.847656 48.382812 -76.96875 53.78125 -76.96875 Z M 50.984375 -12.015625 C 55.648438 -12.015625 59.867188 -13.15625 63.640625 -15.4375 C 67.410156 -17.71875 70.390625 -20.859375 72.578125 -24.859375 C 74.765625 -28.867188 75.859375 -33.34375 75.859375 -38.28125 C 75.859375 -43.21875 74.765625 -47.664062 72.578125 -51.625 C 70.390625 -55.582031 67.410156 -58.703125 63.640625 -60.984375 C 59.867188 -63.265625 55.648438 -64.40625 50.984375 -64.40625 C 46.328125 -64.40625 42.113281 -63.265625 38.34375 -60.984375 C 34.570312 -58.703125 31.613281 -55.582031 29.46875 -51.625 C 27.332031 -47.664062 26.265625 -43.21875 26.265625 -38.28125 C 26.265625 -33.34375 27.332031 -28.867188 29.46875 -24.859375 C 31.613281 -20.859375 34.570312 -17.71875 38.34375 -15.4375 C 42.113281 -13.15625 46.328125 -12.015625 50.984375 -12.015625 Z M 50.984375 -12.015625 "/></g></g></g><g fill="#3186a0" fill-opacity="1"><g transform="translate(471.738107, 138.754977)"><g><path d="M 47.21875 -76.96875 C 54.394531 -76.96875 60.890625 -75.269531 66.703125 -71.875 C 72.523438 -68.476562 77.132812 -63.820312 80.53125 -57.90625 C 83.9375 -51.988281 85.640625 -45.398438 85.640625 -38.140625 L 85.640625 -6.984375 C 85.640625 -4.929688 84.960938 -3.226562 83.609375 -1.875 C 82.265625 -0.53125 80.566406 0.140625 78.515625 0.140625 C 76.460938 0.140625 74.757812 -0.53125 73.40625 -1.875 C 72.0625 -3.226562 71.390625 -4.929688 71.390625 -6.984375 L 71.390625 -12.15625 C 68.128906 -8.144531 64.171875 -5.019531 59.515625 -2.78125 C 54.859375 -0.550781 49.828125 0.5625 44.421875 0.5625 C 37.710938 0.5625 31.632812 -1.113281 26.1875 -4.46875 C 20.738281 -7.820312 16.453125 -12.453125 13.328125 -18.359375 C 10.210938 -24.273438 8.65625 -30.867188 8.65625 -38.140625 C 8.65625 -45.398438 10.332031 -51.988281 13.6875 -57.90625 C 17.039062 -63.820312 21.675781 -68.476562 27.59375 -71.875 C 33.507812 -75.269531 40.050781 -76.96875 47.21875 -76.96875 Z M 47.21875 -12.015625 C 51.875 -12.015625 56.085938 -13.15625 59.859375 -15.4375 C 63.628906 -17.71875 66.585938 -20.835938 68.734375 -24.796875 C 70.878906 -28.753906 71.953125 -33.203125 71.953125 -38.140625 C 71.953125 -43.078125 70.878906 -47.546875 68.734375 -51.546875 C 66.585938 -55.554688 63.628906 -58.703125 59.859375 -60.984375 C 56.085938 -63.265625 51.875 -64.40625 47.21875 -64.40625 C 42.5625 -64.40625 38.347656 -63.265625 34.578125 -60.984375 C 30.804688 -58.703125 27.828125 -55.554688 25.640625 -51.546875 C 23.453125 -47.546875 22.359375 -43.078125 22.359375 -38.140625 C 22.359375 -33.203125 23.453125 -28.753906 25.640625 -24.796875 C 27.828125 -20.835938 30.804688 -17.71875 34.578125 -15.4375 C 38.347656 -13.15625 42.5625 -12.015625 47.21875 -12.015625 Z M 47.21875 -12.015625 "/></g></g></g><g fill="#3186a0" fill-opacity="1"><g transform="translate(566.036762, 138.754977)"><g><path d="M 40.375 0.5625 C 34.039062 0.5625 28.078125 -0.414062 22.484375 -2.375 C 16.898438 -4.332031 12.523438 -6.894531 9.359375 -10.0625 C 8.148438 -11.269531 7.546875 -12.710938 7.546875 -14.390625 C 7.546875 -16.628906 8.476562 -18.445312 10.34375 -19.84375 C 12.113281 -21.144531 13.742188 -21.796875 15.234375 -21.796875 C 17.085938 -21.796875 18.851562 -20.957031 20.53125 -19.28125 C 22.300781 -17.320312 24.957031 -15.617188 28.5 -14.171875 C 32.039062 -12.734375 35.8125 -12.015625 39.8125 -12.015625 C 45.125 -12.015625 49.242188 -12.898438 52.171875 -14.671875 C 55.109375 -16.441406 56.578125 -18.816406 56.578125 -21.796875 C 56.578125 -24.679688 55.132812 -27.078125 52.25 -28.984375 C 49.363281 -30.898438 44.472656 -32.507812 37.578125 -33.8125 C 19.691406 -37.257812 10.75 -44.613281 10.75 -55.875 C 10.75 -60.445312 12.097656 -64.3125 14.796875 -67.46875 C 17.503906 -70.632812 21.046875 -73.007812 25.421875 -74.59375 C 29.796875 -76.175781 34.453125 -76.96875 39.390625 -76.96875 C 45.453125 -76.96875 50.878906 -75.988281 55.671875 -74.03125 C 60.460938 -72.082031 64.257812 -69.382812 67.0625 -65.9375 C 68.269531 -64.445312 68.875 -62.957031 68.875 -61.46875 C 68.875 -59.882812 68.082031 -58.441406 66.5 -57.140625 C 65.476562 -56.390625 64.175781 -56.015625 62.59375 -56.015625 C 60.164062 -56.015625 57.972656 -56.898438 56.015625 -58.671875 C 53.691406 -60.816406 51.222656 -62.332031 48.609375 -63.21875 C 46.003906 -64.101562 42.835938 -64.546875 39.109375 -64.546875 C 34.828125 -64.546875 31.3125 -63.820312 28.5625 -62.375 C 25.820312 -60.9375 24.453125 -58.910156 24.453125 -56.296875 C 24.453125 -54.429688 24.914062 -52.867188 25.84375 -51.609375 C 26.769531 -50.359375 28.535156 -49.195312 31.140625 -48.125 C 33.753906 -47.050781 37.53125 -46.003906 42.46875 -44.984375 C 52.625 -42.929688 59.816406 -40.085938 64.046875 -36.453125 C 68.285156 -32.828125 70.40625 -28.128906 70.40625 -22.359375 C 70.40625 -18.066406 69.238281 -14.175781 66.90625 -10.6875 C 64.582031 -7.195312 61.160156 -4.445312 56.640625 -2.4375 C 52.128906 -0.4375 46.707031 0.5625 40.375 0.5625 Z M 40.375 0.5625 "/></g></g></g><g fill="#3186a0" fill-opacity="1"><g transform="translate(641.894786, 138.754977)"><g><path d="M 81.171875 -39.390625 C 81.171875 -37.617188 80.5625 -36.148438 79.34375 -34.984375 C 78.132812 -33.828125 76.597656 -33.25 74.734375 -33.25 L 21.65625 -33.25 C 22.675781 -26.726562 25.628906 -21.460938 30.515625 -17.453125 C 35.410156 -13.453125 41.398438 -11.453125 48.484375 -11.453125 C 51.273438 -11.453125 54.179688 -11.960938 57.203125 -12.984375 C 60.234375 -14.015625 62.726562 -15.273438 64.6875 -16.765625 C 65.988281 -17.785156 67.523438 -18.296875 69.296875 -18.296875 C 71.066406 -18.296875 72.460938 -17.832031 73.484375 -16.90625 C 75.160156 -15.507812 76 -13.925781 76 -12.15625 C 76 -10.476562 75.253906 -9.082031 73.765625 -7.96875 C 70.597656 -5.445312 66.660156 -3.394531 61.953125 -1.8125 C 57.253906 -0.226562 52.765625 0.5625 48.484375 0.5625 C 40.835938 0.5625 33.988281 -1.085938 27.9375 -4.390625 C 21.882812 -7.703125 17.15625 -12.289062 13.75 -18.15625 C 10.351562 -24.03125 8.65625 -30.691406 8.65625 -38.140625 C 8.65625 -45.585938 10.257812 -52.269531 13.46875 -58.1875 C 16.6875 -64.101562 21.160156 -68.710938 26.890625 -72.015625 C 32.617188 -75.316406 39.113281 -76.96875 46.375 -76.96875 C 53.550781 -76.96875 59.742188 -75.382812 64.953125 -72.21875 C 70.171875 -69.0625 74.175781 -64.640625 76.96875 -58.953125 C 79.769531 -53.273438 81.171875 -46.753906 81.171875 -39.390625 Z M 46.375 -64.96875 C 39.582031 -64.96875 34.066406 -63.101562 29.828125 -59.375 C 25.585938 -55.644531 22.910156 -50.660156 21.796875 -44.421875 L 68.3125 -44.421875 C 67.476562 -50.660156 65.148438 -55.644531 61.328125 -59.375 C 57.515625 -63.101562 52.53125 -64.96875 46.375 -64.96875 Z M 46.375 -64.96875 "/></g></g></g><path stroke-linecap="butt" transform="matrix(0.410057, -0.625592, 0.625592, 0.410057, 428.080281, 88.933824)" fill="none" stroke-linejoin="miter" d="M 0.00250446 7.500307 L 55.780026 7.498894 " stroke="#ffffff" stroke-width="15" stroke-opacity="1" stroke-miterlimit="4"/><g clip-path="url(#05613e104a)"><g clip-path="url(#66f21867cb)"><path fill="#ff3131" d="M 432.027344 64.53125 L 445.65625 64.53125 L 445.65625 78.160156 L 432.027344 78.160156 Z M 432.027344 64.53125 " fill-opacity="1" fill-rule="nonzero"/></g></g><path stroke-linecap="butt" transform="matrix(0.733557, -0.146308, 0.146308, 0.733557, 431.677313, 86.511249)" fill="none" stroke-linejoin="miter" d="M -0.00124238 7.498107 L 58.483546 7.501008 " stroke="#ffffff" stroke-width="15" stroke-opacity="1" stroke-miterlimit="4"/><g clip-path="url(#de7012b726)"><g clip-path="url(#e89fd6799e)"><path fill="#ff3131" d="M 448.648438 86.5 L 462.648438 86.5 L 462.648438 100.5 L 448.648438 100.5 Z M 448.648438 86.5 " fill-opacity="1" fill-rule="nonzero"/></g></g></svg>